<svg id="visual" viewBox="0 0 900 600" width="900" height="600" xmlns="http://www.w3.org/2000/svg" xmlns:xlink="http://www.w3.org/1999/xlink" version="1.1"><rect x="0" y="0" width="900" height="600" fill="#ffffff"></rect><path d="M0 193L21.5 187.8C43 182.7 86 172.3 128.8 161.8C171.7 151.3 214.3 140.7 257.2 162.2C300 183.7 343 237.3 385.8 252.3C428.7 267.3 471.3 243.7 514.2 217.2C557 190.7 600 161.3 642.8 148.8C685.7 136.3 728.3 140.7 771.2 139.2C814 137.7 857 130.3 878.5 126.7L900 123L900 601L878.5 601C857 601 814 601 771.2 601C728.3 601 685.7 601 642.8 601C600 601 557 601 514.2 601C471.3 601 428.7 601 385.8 601C343 601 300 601 257.2 601C214.3 601 171.7 601 128.8 601C86 601 43 601 21.5 601L0 601Z" fill="#00c896"></path><path d="M0 238L21.5 236.7C43 235.3 86 232.7 128.8 230.2C171.7 227.7 214.3 225.3 257.2 223.8C300 222.3 343 221.7 385.8 240.2C428.7 258.7 471.3 296.3 514.2 309.8C557 323.3 600 312.7 642.8 310.5C685.7 308.3 728.3 314.7 771.2 315C814 315.3 857 309.7 878.5 306.8L900 304L900 601L878.5 601C857 601 814 601 771.2 601C728.3 601 685.7 601 642.8 601C600 601 557 601 514.2 601C471.3 601 428.7 601 385.8 601C343 601 300 601 257.2 601C214.3 601 171.7 601 128.8 601C86 601 43 601 21.5 601L0 601Z" fill="#00a385"></path><path d="M0 286L21.5 290.2C43 294.3 86 302.7 128.8 310.3C171.7 318 214.3 325 257.2 335C300 345 343 358 385.8 371.2C428.7 384.3 471.3 397.7 514.2 388.2C557 378.7 600 346.3 642.8 343.5C685.7 340.7 728.3 367.3 771.2 379.5C814 391.7 857 389.3 878.5 388.2L900 387L900 601L878.5 601C857 601 814 601 771.2 601C728.3 601 685.7 601 642.8 601C600 601 557 601 514.2 601C471.3 601 428.7 601 385.8 601C343 601 300 601 257.2 601C214.3 601 171.7 601 128.8 601C86 601 43 601 21.5 601L0 601Z" fill="#007f70"></path><path d="M0 469L21.5 453.2C43 437.3 86 405.7 128.8 404.7C171.7 403.7 214.3 433.3 257.2 450.7C300 468 343 473 385.8 471.7C428.7 470.3 471.3 462.7 514.2 446.7C557 430.7 600 406.3 642.8 397.7C685.7 389 728.3 396 771.2 395.8C814 395.7 857 388.3 878.5 384.7L900 381L900 601L878.5 601C857 601 814 601 771.2 601C728.3 601 685.7 601 642.8 601C600 601 557 601 514.2 601C471.3 601 428.7 601 385.8 601C343 601 300 601 257.2 601C214.3 601 171.7 601 128.8 601C86 601 43 601 21.5 601L0 601Z" fill="#005d57"></path><path d="M0 494L21.5 501.7C43 509.3 86 524.7 128.8 527.8C171.7 531 214.3 522 257.2 508.3C300 494.7 343 476.3 385.8 478.5C428.7 480.7 471.3 503.3 514.2 514.5C557 525.7 600 525.3 642.8 522.7C685.7 520 728.3 515 771.2 519C814 523 857 536 878.5 542.5L900 549L900 601L878.5 601C857 601 814 601 771.2 601C728.3 601 685.7 601 642.8 601C600 601 557 601 514.2 601C471.3 601 428.7 601 385.8 601C343 601 300 601 257.2 601C214.3 601 171.7 601 128.8 601C86 601 43 601 21.5 601L0 601Z" fill="#003c3c"></path></svg>